<svg version="1.0" xmlns="http://www.w3.org/2000/svg" width="2133.333" height="2133.333" viewBox="0 0 1600 1600"><path d="M162 .7c-9.4 1-26.5 4.8-37.2 8.3C62.3 29.6 16.2 82.1 2.8 148.1L.5 159.5v894l2.7 12.6c7.7 35.7 23.2 65 47.7 90.2 24.6 25.4 51.8 41.4 85.4 50.2 22.8 6-27.7 5.6 656.2 5.3 594.8-.3 625.4-.4 633.8-2.1 4.8-1 12.7-2.9 17.5-4.3 71.7-20.7 123.8-83 131.2-156.9.8-7.9 1-134.4.8-449.5l-.3-438.5-2.3-11.3c-15.8-78.7-76.4-136.6-154.3-147.7C1409.8.2 1329.7.1 787 .2 445.2.3 163.9.5 162 .7zm1247 122.8c7.8 2.1 18.8 7.8 24.8 13.1 6.3 5.5 14.2 17.1 17.3 25.5l2.4 6.4.3 343.9c.2 380.6.8 348.7-6.2 363.1-6.8 13.8-19.8 25.1-35.1 30.3l-8 2.7h-1234l-7.3-2.7c-4.1-1.5-9.9-4.2-12.9-6-7.5-4.5-18.2-16.1-22.1-24-6.7-13.7-6.2 17.2-6.2-360.8 0-380.2-.6-347.2 6.7-361.4 7.1-13.7 22.5-26 37.4-30 8.2-2.2 1234.6-2.3 1242.9-.1zM806.6 976c26.1 5.1 49.2 23.7 60.5 48.6 10 22 9.7 50.7-.6 73-9.4 20.5-27 36.6-48.1 44.3-11.8 4.3-20.2 5.5-35 4.9-10.3-.5-14.6-1.1-21.4-3.3-30.2-9.7-50.7-31.6-58.6-62.5-2.5-9.8-2.5-30.4-.1-40.4 6.7-26.9 23.3-48 47.2-59.7 12.7-6.2 20.7-7.9 35-7.3 6.6.3 16.1 1.4 21.1 2.4z"/><path d="M881.9 243c-18.7 3.2-39.1 12.2-55.9 24.6-19.5 14.3-36.1 38.7-43.6 63.9-2.3 7.8-2.7 10.9-2.8 23.7-.1 8.9.3 15.1.9 15.7 1.4 1.4 16.7-.3 26.5-3 22.6-6.1 45.5-22.5 60-42.6 8.1-11.4 17.2-30.2 20.7-42.8 2.4-8.8 2.7-11.9 2.8-25 0-17 .5-16.1-8.6-14.5z"/><path d="M676.8 368.6C629 376 582.4 417.9 566 468.1c-10.1 30.8-12 71.1-5.4 110.9 4.9 29.2 16.6 64.6 30.4 92.1 14.3 28.3 35.5 59.2 53.4 77.8 23.5 24.3 45.2 34.1 69.1 31.1 9.3-1.2 17-3.6 33.7-10.8 19-8.2 32.5-11.2 50.7-11.2 19.6 0 29.5 2.3 53.6 12.5 19.1 8.2 25.4 9.8 38 9.7 16 0 30.1-5.6 46-18.2 18.1-14.4 42.7-46 62.5-80.4 6.2-10.8 21.4-42.5 20.7-43.2-.2-.3-4.6-2.5-9.8-5-33.8-16.5-57.7-48.7-64.4-86.8-1.9-11.2-1.9-30.8 0-41.7 5.5-31.7 23.5-58.9 50.7-76.8l8.9-5.9-5.6-6.4C976 390.5 945.1 373 915 368.4c-11.9-1.8-19.7-1.7-33 .1-13.8 1.9-21.9 4.2-43.1 12.6-22.4 8.7-28.6 10.3-41.9 10.2-13.2 0-21.2-1.9-47.2-11.2-35.5-12.7-50.5-15.1-73-11.5zM661 1273.1c-15.8 3.1-35.3 22.8-50.4 50.9l-4.6 8.5v61.5l-64.8.2-64.7.3-6.5 3.2c-12.8 6.4-26.8 22.1-39.5 44.3l-6.5 11.4v61.6h728v-32.8c0-24.8-.4-34.4-1.5-39.7-1.9-9-8.1-21.5-14-28.2-5.7-6.4-17.2-14.3-25.6-17.4l-6.4-2.4-67.2-.3-67.3-.3v-33.2c0-25.2-.4-34.9-1.5-40.1-4.5-21.4-22-39.7-44.1-46.3-5.5-1.6-14.8-1.8-132.4-1.9-70.4-.1-128.5.2-131 .7z"/></svg>